<svg width="1200" height="800" viewBox="0 0 1200 800" xmlns="http://www.w3.org/2000/svg" role="img" aria-labelledby="title desc">
  <title id="title">Doodle BMW Car</title>
  <desc id="desc">A playful hand-drawn doodle of a BMW-inspired coupe with kidney grille, round badge, and loose sketch lines.</desc>
  <rect width="1200" height="800" fill="#fbfaf6"/>

  <g fill="none" stroke="#161616" stroke-linecap="round" stroke-linejoin="round">
    <path d="M146 557c64 18 156 26 268 21 118-5 247-7 380 4 76 6 151 2 226-14 24-5 39-22 44-48 8-44-15-85-68-122-53-36-125-60-216-72-42-49-95-84-159-104-56-17-121-19-194-7-75 12-139 42-191 90-44 8-80 20-108 36-39 22-57 51-53 87 4 35 28 72 71 129z" stroke-width="11"/>
    <path d="M164 544c82 12 171 17 267 14 112-4 234-6 365 3 78 5 152-1 222-18" stroke-width="5" opacity=".45"/>
    <path d="M236 305c82-15 186-26 312-28 97-2 174 12 232 49" stroke-width="7"/>
    <path d="M336 309c47-47 103-74 168-82 63-8 115 5 157 39 20 16 41 38 64 65" stroke-width="8"/>
    <path d="M391 310c49-33 103-50 161-50 49 0 93 15 132 45" stroke-width="5" opacity=".55"/>
    <path d="M414 323c7-33 23-63 48-91" stroke-width="7"/>
    <path d="M640 322c-9-37-24-70-44-99" stroke-width="7"/>

    <path d="M771 396c77 2 138 17 183 44 17 10 30 23 39 39-44 7-95 5-153-7-28-6-54-16-78-31-15-9-12-45 9-45z" stroke-width="8"/>
    <path d="M238 391c88-17 160-16 216 2 18 6 27 43 10 52-33 19-74 29-122 30-60 1-113-8-158-28 9-29 27-48 54-56z" stroke-width="8"/>
    <path d="M483 394c72 5 144 8 216 8" stroke-width="7"/>
    <path d="M500 449c58 15 124 16 198 2" stroke-width="5" opacity=".6"/>

    <path d="M546 410c5-18 15-31 30-39 12-7 25-7 38-1 17 7 28 21 33 42-20 8-38 13-54 13-15 0-31-5-47-15z" stroke-width="8"/>
    <path d="M578 371c-4 19-5 37-4 54" stroke-width="6"/>
    <path d="M616 371c2 19 2 37 0 54" stroke-width="6"/>

    <path d="M293 532c10-42 36-71 77-88 35-14 70-10 104 13 36 24 53 59 51 105" stroke-width="11"/>
    <path d="M775 532c10-43 36-72 78-88 36-14 71-9 105 15 35 25 51 60 48 104" stroke-width="11"/>
    <circle cx="407" cy="549" r="75" fill="#fbfaf6" stroke-width="11"/>
    <circle cx="407" cy="549" r="39" stroke-width="8"/>
    <circle cx="407" cy="549" r="11" fill="#161616" stroke="none"/>
    <circle cx="889" cy="549" r="75" fill="#fbfaf6" stroke-width="11"/>
    <circle cx="889" cy="549" r="39" stroke-width="8"/>
    <circle cx="889" cy="549" r="11" fill="#161616" stroke="none"/>

    <path d="M193 462c28 11 62 15 101 12" stroke-width="6"/>
    <path d="M958 466c30 3 56 2 78-4" stroke-width="6"/>
    <path d="M191 513c-42-11-71-28-87-52" stroke-width="6" opacity=".6"/>
    <path d="M1038 516c32-13 53-29 63-48" stroke-width="6" opacity=".6"/>

    <path d="M185 618c116 18 251 24 405 17 146-6 286-2 420 13" stroke-width="6" opacity=".45"/>
    <path d="M256 650c185 17 363 18 535 4" stroke-width="4" opacity=".28"/>
    <path d="M121 294c24-13 51-21 80-24" stroke-width="6" opacity=".35"/>
    <path d="M925 271c42 8 82 24 120 48" stroke-width="6" opacity=".35"/>
  </g>

  <g stroke="#161616" stroke-linecap="round" stroke-linejoin="round">
    <circle cx="600" cy="347" r="34" fill="#fbfaf6" stroke-width="7"/>
    <path d="M600 313a34 34 0 0 1 34 34h-34z" fill="#2b78d0" stroke-width="3"/>
    <path d="M566 347a34 34 0 0 1 34-34v34z" fill="#fbfaf6" stroke-width="3"/>
    <path d="M600 347h34a34 34 0 0 1-34 34z" fill="#fbfaf6" stroke-width="3"/>
    <path d="M566 347h34v34a34 34 0 0 1-34-34z" fill="#2b78d0" stroke-width="3"/>
    <text x="600" y="302" text-anchor="middle" font-family="Comic Sans MS, Marker Felt, Chalkboard SE, cursive" font-size="29" font-weight="700" fill="#161616" stroke="none">BMW</text>
  </g>

  <g fill="none" stroke="#2b78d0" stroke-linecap="round" stroke-linejoin="round" opacity=".85">
    <path d="M260 361c38-30 83-48 135-54" stroke-width="7"/>
    <path d="M734 355c68 4 128 18 181 42" stroke-width="7"/>
    <path d="M489 507c77 12 152 11 226-5" stroke-width="6"/>
  </g>

  <g fill="#161616" opacity=".86">
    <circle cx="224" cy="252" r="5"/>
    <circle cx="891" cy="237" r="4"/>
    <circle cx="1052" cy="374" r="5"/>
    <circle cx="149" cy="381" r="4"/>
    <circle cx="556" cy="654" r="4"/>
  </g>
</svg>
