<svg width="856" height="208" viewBox="0 0 856 208" fill="none" xmlns="http://www.w3.org/2000/svg">
<path d="M52.1051 15.6172C75.4873 11.4352 107.475 28.5626 121.077 47.8041C133.474 65.3413 120.918 70.1453 116.238 85.4513C112.401 97.996 129.937 121.23 143.725 110.96C157.802 99.8421 160.774 86.3309 149.323 71.9425C137.173 56.6775 159.479 37.5666 169.878 30.0791C196.848 10.6589 220.941 14.3866 251.428 19.9709C252.538 20.9698 253.383 22.1832 254.282 23.3762C255.363 45.5704 254.145 68.792 251.843 90.848C251.165 97.3532 249.629 102.937 246.455 108.664C240.803 121.782 223.387 130.501 209.896 132.179C196.584 133.834 182.466 132.061 169.149 133.022C157.57 133.858 160.112 146.666 161.169 154.592C162.344 163.405 163.204 173.16 163.905 182.099C164.028 183.846 163.503 186.37 162.136 187.61C157.213 191.836 142.765 193.233 136.37 193.224C130.149 193.216 114.601 191.627 109.555 187.53C108.708 186.716 108.279 185.222 108.29 184.088C108.422 169.952 112.093 154.796 112.59 140.771C111.106 137.658 109.137 134.744 105.789 133.488C102.194 132.139 97.3551 132.837 93.5389 132.88C73.9416 133.1 53.6943 134.384 37.1444 121.896C27.3504 114.507 22.4548 104.254 20.7976 92.2689C19.3525 81.8179 14.9289 27.0491 19.5831 21.3625C22.2943 18.0499 46.8782 16.2333 52.1051 15.6172Z" fill="#30B0E3"/>
<path d="M350.768 68.6225C367.31 67.108 380.284 72.351 387.427 87.9042C383.604 89.6334 378.992 91.5998 375.424 93.6743C371.919 86.3831 367.084 81.7686 358.48 80.8468C334.835 78.3137 325.817 108.071 338.821 124.107C349.839 137.693 375.709 133.743 377.293 113.545C373.686 113.342 358.139 113.938 356.202 113.114L355.888 112.04C356.002 108.714 355.881 105.239 355.813 101.9C367.55 102.02 379.409 101.919 391.156 101.897C391.234 113.048 391.258 120.918 384.543 130.687C379.548 137.952 371.51 142.412 362.863 143.882C353.006 145.614 342.865 143.34 334.692 137.564C326.646 131.823 321.108 122.902 319.75 113.193C316.576 90.5138 327.952 72.3706 350.768 68.6225Z" fill="#30B0E3"/>
<path d="M460.407 87.8984C476.031 86.2854 490.017 97.6135 491.68 113.23C493.343 128.846 482.059 142.864 466.444 144.576C450.761 146.295 436.662 134.95 434.991 119.264C433.32 103.577 444.712 89.5186 460.407 87.8984ZM467.079 131.902C468.72 131.758 470.245 130.608 471.565 129.65C482.527 121.698 478.851 100.554 463.912 100.175C462.763 100.147 461.481 100.272 460.328 100.358C442.535 104.459 444.942 135.805 467.079 131.902Z" fill="#30B0E3"/>
<path d="M556.033 122.804C558.376 115.162 563.59 97.3211 567.366 89.8335C567.976 88.6206 578.09 89.0792 580.718 89.0858C579.991 92.8603 576.077 103.523 574.706 107.443C570.984 117.738 565.453 133.125 562.437 143.307L550.665 143.302C547.093 133.61 540.851 116.466 538.362 106.755C534.443 117.084 529.179 132.802 525.933 143.251C522.153 143.381 517.904 143.289 514.086 143.291C512.127 138.402 495.805 89.9968 495.897 89.4367L497.246 89.156C501.29 89.0988 505.338 89.0825 509.382 89.1084L520.595 123.2C523.373 113.136 528.912 99.3213 532.371 89.0265C535.421 89.1126 540.618 88.8022 543.358 89.6096C546.069 91.4937 553.321 117.612 556.033 122.804Z" fill="#30B0E3"/>
<path d="M251.168 138.922C251.567 139.062 251.96 139.219 252.347 139.391C253.234 139.794 253.613 140.24 253.945 141.161C255.119 144.427 252.546 164.31 250.92 167.763C248.736 172.4 244.066 175.031 239.425 176.673C232.905 178.98 216.395 180.96 208.677 182.266C201.277 183.519 191.249 186.003 183.991 186.279C182.519 186.335 181.37 185.85 180.061 185.225C179.63 184.882 178.823 184.105 178.541 183.672C175.802 179.463 175.709 162.175 176.371 157.633C177.339 156.523 178.783 155.285 179.9 154.273C188.06 152.794 200.677 154.176 209.406 153.819C220.019 153.384 230.595 154.956 240.233 148.725C244.444 146.004 247.608 142.315 251.168 138.922Z" fill="#30B0E3"/>
<path d="M20.0951 138.809C22.6116 139.516 26.5788 144.611 29.1277 146.719C31.844 148.941 34.9483 150.642 38.2836 151.734C50.4796 155.74 75.7755 152.717 89.4511 153.915C93.2335 154.247 93.6826 155.26 95.956 158.172L95.9685 158.32C96.4418 164.297 96.2576 176.071 94.7503 181.991C94.5423 182.808 93.3475 184.229 92.7614 184.908C90.1713 186.479 89.2882 186.615 86.366 186.112C79.9969 185.015 73.624 183.923 67.2541 182.831L48.8934 179.677C28.6832 176.412 18.6081 175.25 19.0904 151.875C19.1817 147.451 16.2157 142.536 20.0951 138.809Z" fill="#30B0E3"/>
<path d="M750.786 88.2734C752.65 88.0663 755.566 88.1849 757.454 88.3925C763.712 89.0645 769.443 92.1954 773.387 97.0955C778.922 104.001 780.029 111.359 779.093 119.896C766.03 119.842 752.967 119.86 739.904 119.949C742.402 134.835 758.131 137.009 766.565 126.023L770.513 127.843L777.268 131.197C772.267 139.551 767.396 142.915 757.704 144.185C721.13 148.977 713.113 92.7822 750.786 88.2734ZM740.28 110.029C745.74 109.917 751.2 109.898 756.66 109.974L765.55 109.886C762.458 101.077 759.2 98.0854 749.362 99.5718C743.948 100.828 741.366 104.834 740.28 110.029Z" fill="#30B0E3"/>
<path d="M667.017 88.2955C667.547 88.2099 668.082 88.1619 668.617 88.1527C675.176 88.0704 681.354 89.1873 686.213 94.0247C693.402 101.184 692.232 111.479 692.216 120.75L692.149 143.302L679.219 143.315C679.24 141.512 679.353 139.554 679.42 137.738C670.066 146.963 650.979 147.614 644.918 134.504C644.817 134.132 644.73 133.756 644.654 133.378C640.193 111.301 663.863 111.8 678.564 108.88C678 95.69 662.952 96.8703 656.878 107.374C653.381 105.839 642.929 102.895 647.808 97.7203C653.106 92.0984 659.347 89.0244 667.017 88.2955ZM660.884 122.649C656.673 126.714 656.088 130.458 661.482 133.8C664.18 134.335 665.864 134.495 668.613 133.874C674.256 132.599 679.992 125.674 678.338 119.705C677.619 119.354 677.302 119.473 676.517 119.615C672.385 120.115 664.84 121.263 660.884 122.649Z" fill="#30B0E3"/>
<path d="M600.134 68.3422L600.514 68.2536L600.965 68.5999C601.237 75.6076 601.228 87.2777 600.71 94.1684C605.285 90.4273 607.499 88.3607 614.183 88.2041C619.927 88.0696 625.078 89.2253 629.393 93.2997C637.314 100.776 635.802 112.705 635.764 122.847C635.697 129.667 635.71 136.487 635.802 143.307L622.27 143.366C622.07 132.103 623.085 119.769 622.312 108.467C620.328 103.803 619.38 103.082 615.306 100.359C599.382 99.3379 600.944 109.292 600.944 121.479C600.927 128.751 600.982 136.022 601.099 143.293L587.58 143.324C588.027 136.266 587.751 126.476 587.735 119.165C587.572 102.189 587.593 85.2119 587.802 68.2361C591.745 68.5782 596.152 68.4307 600.134 68.3422Z" fill="#30B0E3"/>
<path d="M825.626 88.981C829.845 89.085 836.032 89.3356 840.105 89.0407C833.897 103.262 827.259 121.209 821.536 135.854C820.433 138.176 819.38 141.009 818.557 143.463C813.532 158.396 804.659 169.03 787.36 163.365C787.372 159.66 787.36 155.956 787.326 152.251C792.523 153.509 794.62 153.472 799.646 152.034C802.482 148.736 803.468 147.098 805.177 143.106L783.809 89.2019L792.256 89.1727C793.743 89.11 795.949 88.8816 797.315 89.5156C799.249 90.4157 810.353 121.921 812.007 126.222C816.051 114.097 821.189 101.091 825.626 88.981Z" fill="#30B0E3"/>
<path d="M703.917 68.2637C707.41 68.5653 713.522 68.4458 716.947 68.1672L716.964 118.639C716.968 124.777 717.378 137.748 716.822 143.32L703.174 143.346C703.792 134.424 702.631 69.7235 703.917 68.2637Z" fill="#30B0E3"/>
<path d="M426.4 88.7215L430.276 88.5988L430.264 100.304C428.752 100.251 427.244 100.226 425.731 100.228C422.431 100.257 419.022 101.55 416.7 103.925C413.198 107.508 413.158 112.933 413.18 117.62C413.219 126.184 413.286 134.746 413.47 143.307C410.719 143.281 401.82 143.882 399.904 142.886L399.525 141.488C399.668 125.044 398.97 104.995 399.789 88.9985C403.843 89.1864 408.595 89.0774 412.701 89.0837C412.724 92.2049 412.576 93.668 412.122 96.7655C416.593 90.3112 418.6 89.2946 426.4 88.7215Z" fill="#30B0E3"/>
</svg>
